<?xml version="1.0" encoding="UTF-8" standalone="no"?>
<svg
   xmlns:dc="http://purl.org/dc/elements/1.1/"
   xmlns:cc="http://creativecommons.org/ns#"
   xmlns:rdf="http://www.w3.org/1999/02/22-rdf-syntax-ns#"
   xmlns:svg="http://www.w3.org/2000/svg"
   xmlns="http://www.w3.org/2000/svg"
   viewBox="0 0 1056 816"
   height="816"
   width="1056"
   xml:space="preserve"
   id="svg2"
   version="1.1"><metadata
     id="metadata8"><rdf:RDF><cc:Work
         rdf:about=""><dc:format>image/svg+xml</dc:format><dc:type
           rdf:resource="http://purl.org/dc/dcmitype/StillImage" /></cc:Work></rdf:RDF></metadata><defs
     id="defs6"><linearGradient
       id="linearGradient30"
       spreadMethod="pad"
       gradientTransform="matrix(111.50867,111.50867,111.50867,-111.50867,303.74054,356.25708)"
       gradientUnits="userSpaceOnUse"
       y2="0"
       x2="1"
       y1="0"
       x1="0"><stop
         id="stop24"
         offset="0"
         style="stop-opacity:1;stop-color:#ef7940" /><stop
         id="stop26"
         offset="0.25727179"
         style="stop-opacity:1;stop-color:#cd2356" /><stop
         id="stop28"
         offset="1"
         style="stop-opacity:1;stop-color:#cd2356" /></linearGradient><linearGradient
       id="linearGradient52"
       spreadMethod="pad"
       gradientTransform="matrix(-54.691864,54.699585,54.699585,54.691864,382.24222,311.74725)"
       gradientUnits="userSpaceOnUse"
       y2="0"
       x2="1"
       y1="0"
       x1="0"><stop
         id="stop46"
         offset="0"
         style="stop-opacity:1;stop-color:#2456a0" /><stop
         id="stop48"
         offset="0.44357271"
         style="stop-opacity:1;stop-color:#2456a0" /><stop
         id="stop50"
         offset="1"
         style="stop-opacity:1;stop-color:#2e385c" /></linearGradient><linearGradient
       id="linearGradient74"
       spreadMethod="pad"
       gradientTransform="matrix(110.5816,109.00387,109.00387,-110.5816,381.49951,354.68274)"
       gradientUnits="userSpaceOnUse"
       y2="0"
       x2="1"
       y1="0"
       x1="0"><stop
         id="stop68"
         offset="0"
         style="stop-opacity:1;stop-color:#2456a0" /><stop
         id="stop70"
         offset="0.70195873"
         style="stop-opacity:1;stop-color:#2456a0" /><stop
         id="stop72"
         offset="1"
         style="stop-opacity:1;stop-color:#29a9e1" /></linearGradient><linearGradient
       id="linearGradient96"
       spreadMethod="pad"
       gradientTransform="matrix(55.408722,-52.581234,-52.581234,-55.408722,415.28702,504.90051)"
       gradientUnits="userSpaceOnUse"
       y2="0"
       x2="1"
       y1="0"
       x1="0"><stop
         id="stop90"
         offset="0"
         style="stop-opacity:1;stop-color:#cb2356" /><stop
         id="stop92"
         offset="0.51533011"
         style="stop-opacity:1;stop-color:#cb2356" /><stop
         id="stop94"
         offset="1"
         style="stop-opacity:1;stop-color:#7d355e" /></linearGradient><clipPath
       id="clipPath106"
       clipPathUnits="userSpaceOnUse"><path
         id="path104"
         d="M 0,612 H 792 V 0 H 0 Z" /></clipPath></defs><g
     transform="matrix(1.3333333,0,0,-1.3333333,0,816)"
     id="g10"><g
       id="g12"><g
         id="g14"><g
           id="g20"><g
             id="g22"><path
               id="path32"
               style="fill:url(#linearGradient30);stroke:none"
               d="m 357.736,518.242 -97.278,-97.747 c 0,0 -9.93,-10.868 -0.781,-20.017 v 0 l 93.915,-94.066 c -32.45,39.495 -4.996,72.981 -4.996,72.981 v 0 c -0.004,-0.008 -0.006,-0.016 -0.01,-0.024 v 0 c 0.411,0.849 0.993,1.692 1.798,2.497 v 0 l 48.169,48.952 c 0,0 27.057,26.117 0,53.174 v 0 l -33.78,34.25 c 0,0 -1.703,1.424 -3.788,1.424 v 0 c -1.043,0 -2.181,-0.356 -3.249,-1.424 m -4.144,-211.831 4.144,-4.15 -4.144,4.151 z" /></g></g></g></g><g
       id="g34"><g
         id="g36"><g
           id="g42"><g
             id="g44"><path
               id="path54"
               style="fill:url(#linearGradient52);stroke:none"
               d="m 353.592,306.411 4.144,-4.15 c 0,0 3.831,-3.83 7.663,0 v 0 l 24.554,24.711 c 0,0 1.954,2.111 -0.626,4.692 v 0 l -40.037,38.16 c 0,0 -2.978,4.889 -0.694,9.569 v 0 c 0,0 -27.454,-33.487 4.996,-72.982" /></g></g></g></g><g
       id="g56"><g
         id="g58"><g
           id="g64"><g
             id="g66"><path
               id="path76"
               style="fill:url(#linearGradient74);stroke:none"
               d="m 441.734,513.814 -4.143,4.15 z m 4.996,-72.981 c 0.005,0.008 0.007,0.016 0.01,0.025 v 0 c -0.411,-0.85 -0.993,-1.693 -1.799,-2.499 v 0 l -48.169,-48.951 c 0,0 -27.057,-26.118 0,-53.173 v 0 l 33.781,-34.251 c 0,0 3.832,-3.206 7.038,0 v 0 l 97.277,97.746 c 0,0 9.931,10.87 0.781,20.018 v 0 l -93.915,94.066 c 32.451,-39.495 4.996,-72.981 4.996,-72.981" /></g></g></g></g><g
       id="g78"><g
         id="g80"><g
           id="g86"><g
             id="g88"><path
               id="path98"
               style="fill:url(#linearGradient96);stroke:none"
               d="m 429.927,517.964 -24.553,-24.711 c 0,0 -1.955,-2.111 0.625,-4.692 v 0 l 40.037,-38.16 c 0,0 2.978,-4.888 0.694,-9.568 v 0 c 0,0 27.455,33.486 -4.996,72.981 v 0 l -4.143,4.15 c 0,0 -1.704,1.702 -3.974,1.703 v 0 c -1.135,0 -2.412,-0.426 -3.69,-1.703" /></g></g></g></g><g
       id="g100"><g
         clip-path="url(#clipPath106)"
         id="g102"><g
           transform="translate(573.8525,110.9971)"
           id="g108"><path
             id="path110"
             style="fill:#2457a1;fill-opacity:1;fill-rule:nonzero;stroke:none"
             d="m 0,0 2.505,8.956 c 0.689,2.442 1.315,5.636 1.941,8.142 H 4.571 C 5.198,14.592 5.949,11.461 6.701,8.956 L 9.331,0 Z m -1.378,24.237 -12.839,-42.212 h 9.832 l 3.007,10.835 h 12.087 l 3.257,-10.835 H 24.3 L 11.147,24.237 Z M -96.691,8.017 h -15.721 v 16.22 h -9.52 v -42.212 h 9.52 v 17.662 h 15.721 v -17.662 h 9.519 v 42.212 h -9.519 z m -88.437,-2.506 h -3.758 v 11.587 c 0.689,0.187 2.004,0.313 4.322,0.313 4.383,0 7.014,-2.004 7.014,-5.825 0,-3.694 -2.819,-6.075 -7.578,-6.075 m 9.645,-3.696 v 0.189 c 3.632,1.315 7.453,5.011 7.453,10.334 0,3.883 -1.378,6.889 -3.947,8.893 -3.005,2.38 -7.389,3.32 -13.652,3.32 -5.136,0 -9.645,-0.376 -12.714,-0.877 v -41.649 h 9.457 v 16.597 h 2.818 c 3.946,-0.062 5.762,-1.44 6.952,-6.764 1.19,-5.198 2.255,-8.581 2.881,-9.833 h 9.77 c -0.814,1.628 -2.066,7.14 -3.382,11.962 -1.064,3.883 -2.693,6.639 -5.636,7.828 m -79.509,5.2 c -0.877,-5.074 -1.816,-10.021 -2.443,-14.719 h -0.125 c -0.626,4.698 -1.315,9.207 -2.254,14.155 l -3.382,17.786 h -10.146 l -3.57,-17.222 c -1.065,-5.262 -2.067,-10.334 -2.756,-14.907 h -0.125 c -0.689,4.259 -1.566,9.707 -2.505,14.781 l -3.194,17.348 h -10.209 l 10.021,-42.212 h 10.459 l 4.008,18.162 c 1.002,4.26 1.691,8.268 2.442,13.028 h 0.126 c 0.501,-4.823 1.19,-8.768 2.004,-13.028 l 3.57,-18.162 h 10.334 l 10.898,42.212 h -9.708 z m -67.213,-18.101 c -6.388,0 -10.272,5.825 -10.272,14.155 0,8.203 3.759,14.342 10.272,14.342 6.576,0 10.146,-6.514 10.146,-14.154 0,-8.204 -3.695,-14.343 -10.146,-14.343 m 0.188,36.075 c -12.4,0 -20.543,-9.457 -20.543,-22.108 0,-12.088 7.391,-21.545 19.854,-21.545 12.4,0 20.73,8.33 20.73,22.233 0,11.712 -7.077,21.42 -20.041,21.42 m 182.052,-7.954 c 3.444,0 6.137,-0.752 8.017,-1.565 l 2.004,7.514 c -1.692,0.94 -5.45,1.88 -10.397,1.88 -12.776,0 -23.048,-7.954 -23.048,-22.359 0,-12.025 7.516,-21.169 22.109,-21.169 5.072,0 9.081,1.003 10.772,1.816 l -1.378,7.516 c -1.942,-0.814 -5.073,-1.378 -8.016,-1.378 -8.455,0 -13.466,5.324 -13.466,13.779 0,9.395 5.888,13.966 13.403,13.966 m -84.43,-17.16 h 15.533 v 7.766 h -15.533 v 8.767 h 16.472 v 7.829 h -25.991 v -42.212 h 26.868 v 7.829 h -17.349 z m 193.233,12.087 c 0,-6.388 0.187,-12.087 0.751,-17.661 h -0.125 c -1.942,4.76 -4.384,10.02 -6.889,14.467 l -8.768,15.469 h -11.148 v -42.212 h 8.768 v 12.714 c 0,6.889 -0.125,12.839 -0.439,18.476 h 0.251 c 2.004,-4.948 4.823,-10.397 7.327,-14.905 l 9.019,-16.285 h 10.02 v 42.212 h -8.767 z m -45.429,-29.937 h 9.52 v 42.212 h -9.52 z m -290.68,22.234 c -1.44,0 -2.38,0.062 -3.194,0.251 v 12.463 c 0.689,0.187 2.004,0.312 3.883,0.312 4.822,0 7.515,-2.317 7.515,-6.2 0,-4.259 -3.131,-6.826 -8.204,-6.826 m 13.152,16.909 c -2.818,2.256 -7.014,3.383 -12.902,3.383 -5.824,0 -9.958,-0.376 -12.901,-0.877 v -41.649 h 9.457 v 15.157 c 0.877,-0.188 2.004,-0.251 3.257,-0.251 5.636,0 10.458,1.44 13.715,4.447 2.568,2.316 3.883,5.887 3.883,10.02 0,4.134 -1.753,7.641 -4.509,9.77 m 364.761,92.2 H -0.931 v 4.823 h 11.573 z m 0,-14.289 H -0.931 v 4.823 h 11.573 z m 14.403,4.823 v 9.466 h -3.471 v 14.288 H -0.932 v 6.157 h -13.146 v -6.157 h -17.458 v -9.465 h 17.458 v -4.823 h -17.458 v -9.466 h 17.458 v -4.823 h -17.458 v -9.465 h 17.458 V 84.79 h -17.458 v -9.465 h 17.458 v -4.823 h -17.458 v -9.466 h 17.458 v -5.889 h -10.096 c 0,0 -9.356,0.693 -18.159,7.969 4.522,8.784 7.966,20.585 7.966,36.158 H -51.52 l 17.153,18.418 v 9.964 h -33.362 v -9.426 h 17.772 L -68.37,97.217 v -8.698 h 21.144 c -0.271,-2.77 -1.145,-8.226 -3.947,-14.666 -1.632,2.937 -3.054,6.317 -4.131,10.244 h -12.621 c 0,0 1.745,-11.169 9.854,-21.869 -3.184,-4.115 -7.285,-8.237 -12.587,-12.024 l 7.046,-9.668 c 0,0 7.378,3.37 14.722,12.474 7.644,-5.789 18.248,-10.063 32.919,-10.063 h 41.016 v 12.2 H -0.932 v 5.889 h 22.506 v 9.466 H -0.932 v 4.823 H 21.574 V 84.79 H -0.932 v 4.824 h 13.567 c 10.412,0 8.939,10.335 8.939,10.335 v 3.953 z m -163.283,-1.842 h -20.743 v 14.621 h 20.743 z m 0,-25.722 h -20.743 v 12.574 h 20.743 z m 14.981,12.574 h 20.814 V 76.338 h -20.814 z m 0,27.769 h 20.814 V 102.06 h -20.814 z m 0,-57.463 v 5.395 h 24.81 c 0,0 9.92,-0.773 9.92,11.983 v 50.649 h -34.73 v 7.957 h -14.981 v -7.957 h -35.045 V 64.613 h 35.045 V 53.566 c 0,-13.022 15.587,-13.03 15.587,-13.03 h 38.397 v 14.172 h -34.305 c 0,0 -4.698,-0.35 -4.698,4.51 m -83.396,16.443 h -11.788 V 70.04 h -7.567 v 11.854 h 17.029 v 10.822 h -17.029 v 9.534 h 19.355 v 10.823 h -53.34 V 102.25 h 19.356 v -9.534 h -17.03 V 81.894 h 17.03 V 70.04 h -19.356 V 59.218 h 53.34 z m 4.381,-22.499 h -62.359 v 67.255 h 62.359 z m 13.915,0.258 v 77.561 h -90.575 V 41.438 h 80.654 c 0,0 9.921,-0.774 9.921,11.982 m -120.491,18.005 h -20.574 V 109.6 h 20.574 z m -36.241,0 h -20.573 V 109.6 h 20.573 z m 51.661,51.662 h -35.993 v 12.115 h -15.668 V 123.087 H -380.75 V 58.853 h 35.661 v -16.23 h 15.668 v 16.23 h 24.485 c 0,0 11.508,-1.072 11.508,11.134 z" /></g></g></g></g></svg>